<svg width="100" height="41" viewBox="0 0 100 41" fill="none" xmlns="http://www.w3.org/2000/svg">
<rect width="100" height="41" rx="16" fill="white"/>
<circle cx="28.5" cy="20.5" r="12.5" fill="#F8F9FB"/>
<path d="M28.5007 14.5479C29.0893 14.5479 29.6647 14.7224 30.1541 15.0494C30.6436 15.3765 31.025 15.8413 31.2503 16.3851C31.4756 16.9289 31.5345 17.5273 31.4197 18.1047C31.3048 18.682 31.0214 19.2123 30.6051 19.6285C30.1889 20.0448 29.6586 20.3282 29.0813 20.443C28.504 20.5579 27.9055 20.4989 27.3617 20.2737C26.8179 20.0484 26.3531 19.667 26.026 19.1775C25.699 18.6881 25.5245 18.1127 25.5245 17.524L25.5274 17.3949C25.5607 16.6287 25.8885 15.9049 26.4425 15.3744C26.9964 14.844 27.7337 14.5479 28.5007 14.5479Z" fill="black"/>
<path d="M29.6911 21.6907C30.4805 21.6907 31.2375 22.0043 31.7956 22.5624C32.3538 23.1206 32.6673 23.8776 32.6673 24.6669V25.2621C32.6673 25.5779 32.5419 25.8807 32.3186 26.1039C32.0954 26.3272 31.7926 26.4526 31.4768 26.4526H25.5245C25.2087 26.4526 24.9059 26.3272 24.6827 26.1039C24.4594 25.8807 24.334 25.5779 24.334 25.2621V24.6669C24.334 23.8776 24.6475 23.1206 25.2057 22.5624C25.7638 22.0043 26.5208 21.6907 27.3102 21.6907H29.6911Z" fill="black"/>
<path d="M28.5007 14.5479C29.0893 14.5479 29.6647 14.7224 30.1541 15.0494C30.6436 15.3765 31.025 15.8413 31.2503 16.3851C31.4756 16.9289 31.5345 17.5273 31.4197 18.1047C31.3048 18.682 31.0214 19.2123 30.6051 19.6285C30.1889 20.0448 29.6586 20.3282 29.0813 20.443C28.504 20.5579 27.9055 20.4989 27.3617 20.2737C26.8179 20.0484 26.3531 19.667 26.026 19.1775C25.699 18.6881 25.5245 18.1127 25.5245 17.524L25.5274 17.3949C25.5607 16.6287 25.8885 15.9049 26.4425 15.3744C26.9964 14.844 27.7337 14.5479 28.5007 14.5479Z" stroke="black"/>
<path d="M29.6911 21.6907C30.4805 21.6907 31.2375 22.0043 31.7956 22.5624C32.3538 23.1206 32.6673 23.8776 32.6673 24.6669V25.2621C32.6673 25.5779 32.5419 25.8807 32.3186 26.1039C32.0954 26.3272 31.7926 26.4526 31.4768 26.4526H25.5245C25.2087 26.4526 24.9059 26.3272 24.6827 26.1039C24.4594 25.8807 24.334 25.5779 24.334 25.2621V24.6669C24.334 23.8776 24.6475 23.1206 25.2057 22.5624C25.7638 22.0043 26.5208 21.6907 27.3102 21.6907H29.6911Z" stroke="black"/>
<path d="M83.8335 18.6223L78.1362 22.9973C78.0833 23.038 78.0205 23.0702 77.9513 23.0922C77.8822 23.1143 77.808 23.1256 77.7331 23.1256C77.6583 23.1256 77.5841 23.1143 77.515 23.0922C77.4458 23.0702 77.383 23.038 77.3301 22.9973L71.6328 18.6223C71.5259 18.5402 71.4658 18.4288 71.4658 18.3127C71.4658 18.1966 71.5259 18.0853 71.6328 18.0032C71.7397 17.9211 71.8847 17.875 72.0359 17.875C72.1871 17.875 72.332 17.9211 72.4389 18.0032L77.7331 22.0692L83.0273 18.0032C83.0803 17.9626 83.1431 17.9303 83.2123 17.9083C83.2814 17.8863 83.3556 17.875 83.4304 17.875C83.5053 17.875 83.5794 17.8863 83.6486 17.9083C83.7177 17.9303 83.7806 17.9626 83.8335 18.0032C83.8864 18.0439 83.9284 18.0921 83.9571 18.1452C83.9857 18.1983 84.0005 18.2553 84.0005 18.3127C84.0005 18.3702 83.9857 18.4272 83.9571 18.4803C83.9284 18.5334 83.8864 18.5816 83.8335 18.6223Z" fill="black"/>
</svg>
